<?xml version="1.0" encoding="UTF-8" standalone="no"?>
<svg
   fill="none"
   viewBox="0 0 24 24"
   stroke-width="1.5"
   stroke="currentColor"
   class="w-6 h-6"
   version="1.1"
   id="svg1"
   sodipodi:docname="favicon.svg"
   inkscape:version="1.3.2 (091e20ef0f, 2023-11-25, custom)"
   xmlns:inkscape="http://www.inkscape.org/namespaces/inkscape"
   xmlns:sodipodi="http://sodipodi.sourceforge.net/DTD/sodipodi-0.dtd"
   xmlns="http://www.w3.org/2000/svg"
   xmlns:svg="http://www.w3.org/2000/svg">
  <defs
     id="defs1" />
  <sodipodi:namedview
     id="namedview1"
     pagecolor="#505050"
     bordercolor="#ffffff"
     borderopacity="1"
     inkscape:showpageshadow="0"
     inkscape:pageopacity="0"
     inkscape:pagecheckerboard="1"
     inkscape:deskcolor="#d1d1d1"
     inkscape:zoom="20.830547"
     inkscape:cx="12.865721"
     inkscape:cy="12.169628"
     inkscape:window-width="1334"
     inkscape:window-height="716"
     inkscape:window-x="15"
     inkscape:window-y="35"
     inkscape:window-maximized="1"
     inkscape:current-layer="svg1" />
  <path
     stroke-linecap="round"
     stroke-linejoin="round"
     d="M17.25 6.75 22.5 12l-5.25 5.25m-10.5 0L1.5 12l5.25-5.25m7.5-3-4.5 16.5"
     id="path1" />
  <path
     style="fill:#ffffff;fill-opacity:1;stroke-width:0.0720096;stroke-linecap:square;stroke-miterlimit:3.2"
     d="M 6.4550124,17.893123 C 6.2814927,17.804071 0.88849466,12.41577 0.83148489,12.274493 0.78083057,12.148966 0.78675482,11.854061 0.84293148,11.70469 0.90933219,11.528134 6.1299686,6.2953685 6.3992621,6.1354507 c 0.4812201,-0.2857684 1.0657362,0.060362 1.0657362,0.6310921 0,0.096334 -0.031003,0.2334881 -0.068895,0.3047866 -0.037892,0.071299 -1.1504422,1.2096982 -2.4723332,2.5297772 l -2.4034379,2.4001434 2.419322,2.424502 c 1.330627,1.333476 2.4431772,2.471688 2.4723335,2.52936 0.1488986,0.294528 -0.00199,0.736736 -0.3120346,0.914488 -0.2266282,0.129928 -0.4236096,0.137112 -0.6449403,0.02352 z"
     id="path4" />
  <path
     style="fill:#ffffff;fill-opacity:1;stroke-width:0.0720096;stroke-linecap:square;stroke-miterlimit:3.2"
     d="M 9.2835909,20.773879 C 9.0469316,20.553126 8.9955926,20.35765 9.0789435,19.994674 9.2354921,19.312937 13.569369,3.5090934 13.634099,3.3839194 c 0.0872,-0.1686259 0.249763,-0.2840669 0.466703,-0.33142 0.257725,-0.056256 0.474139,0.017877 0.672275,0.230289 0.155227,0.1664118 0.180923,0.2255153 0.180923,0.4161441 0,0.2297214 -4.456466,16.6720155 -4.587305,16.9250315 -0.104509,0.202096 -0.353915,0.330838 -0.6409186,0.330838 -0.220744,0 -0.2697004,-0.02003 -0.4421855,-0.180923 z"
     id="path5" />
  <path
     style="fill:#ffffff;fill-opacity:1;stroke-width:0.0720096;stroke-linecap:square;stroke-miterlimit:3.2"
     d="m 16.930771,17.897613 c -0.338589,-0.166848 -0.497016,-0.639551 -0.323665,-0.965732 0.03789,-0.0713 1.13964,-1.198895 2.448328,-2.50577 1.308688,-1.306875 2.379433,-2.397902 2.379433,-2.424506 0,-0.0266 -1.070745,-1.117631 -2.379433,-2.424506 -1.308688,-1.3068748 -2.410436,-2.4344711 -2.448328,-2.5057696 -0.175256,-0.3297667 -0.01269,-0.8043339 0.331482,-0.967653 0.246892,-0.1171579 0.461925,-0.099004 0.706374,0.059635 0.293539,0.1904968 5.45217,5.3735096 5.515311,5.5413786 0.07107,0.188944 0.06331,0.44623 -0.01807,0.599339 -0.106991,0.201291 -5.5064,5.567475 -5.658987,5.624164 -0.190056,0.07061 -0.366961,0.06082 -0.552442,-0.03058 z"
     id="path6" />
</svg>
